<svg width="688" height="428" viewBox="0 0 688 428" fill="none" xmlns="http://www.w3.org/2000/svg">
<path fill-rule="evenodd" clip-rule="evenodd" d="M10.3759 39.9174C5.52704 39.9174 1.59629 44.4145 1.59629 49.9619V416.129C1.59629 421.677 5.52705 426.174 10.3759 426.174H677.624C682.473 426.174 686.404 421.677 686.404 416.129V49.9619C686.404 44.4144 682.473 39.9174 677.624 39.9174H380.715V38.0911H677.624C683.355 38.0911 688 43.4058 688 49.9619V416.129C688 422.685 683.355 428 677.624 428H10.3759C4.64545 428 0 422.685 0 416.129V49.9619C0 43.4058 4.64543 38.0911 10.3759 38.0911H307.285V39.9174H10.3759Z" fill="#F82225"/>
<path fill-rule="evenodd" clip-rule="evenodd" d="M306.487 39.9174C306.487 16.2148 323.282 0 344 0C364.718 0 381.513 16.2148 381.513 39.9174H379.916C379.916 17.2234 363.836 1.82627 344 1.82627C324.164 1.82627 308.084 17.2234 308.084 39.9174H306.487Z" fill="#F82225"/>
</svg>
