<svg width="654" height="1220" viewBox="0 0 654 1220" fill="none" xmlns="http://www.w3.org/2000/svg">
<path d="M2.7589 1220C72.5802 889.793 69.4676 575.707 54.5413 370.299C38.3416 147.78 5.23483 1.48487 4.88112 0L2.19297 0.919207C2.54667 2.40408 35.5827 148.487 51.7116 370.723C66.638 575.777 69.7506 889.439 0 1219.15L2.7589 1220Z" fill="#131618"/>
<path d="M602.005 459.462L601.793 455.997L60.1299 506.412L60.3421 509.877L602.005 459.462Z" fill="#131618"/>
<path d="M652.868 822.195L654 819.014L60.8372 506.554L59.7053 509.736L652.868 822.195Z" fill="#131618"/>
<path d="M402.375 130.457L400.465 127.911L59.281 506.837L61.191 509.382L402.375 130.457Z" fill="#131618"/>
<path d="M367.853 964.39L61.3324 507.049L59.1394 509.241L365.731 966.582L367.853 964.39Z" fill="#131618"/>
<path d="M635.536 811.165L633.414 808.69C538.904 700.931 583.896 462.149 584.32 459.745L584.532 458.684L583.683 458.26C434.632 382.319 383.982 152.235 383.487 149.901L383.204 148.629L382.213 148.982C285.298 179.952 188.737 142.336 124.716 105.285C55.3193 65.1223 8.2766 17.0407 7.85216 16.5457L6.50808 18.5256C7.00327 19.0205 54.1875 67.3142 123.797 107.618C187.888 144.74 284.591 182.427 381.718 151.811C385.962 170.265 438.382 386.279 582.127 460.169C578.944 477.705 540.461 702.133 629.948 808.195C606.321 807.417 440.079 807.417 357.312 950.955C351.441 952.157 289.755 964.955 217.953 999.744C148.556 1033.33 55.3193 1094.71 5.09326 1196.74L6.93253 1198.08C56.8756 1096.68 149.688 1035.59 218.731 1002.15C293.646 965.945 357.525 953.571 358.161 953.43L358.586 953.359L358.869 952.935C446.87 799.64 630.868 810.811 632.778 810.953L635.536 811.165Z" fill="#131618"/>
<path d="M580.146 781.962L578.024 779.558C492.357 680.85 534.306 466.533 534.802 464.412L535.014 463.351L534.165 462.927C398.837 393.067 353.846 185.538 353.422 183.417L351.37 184.054C351.795 186.175 396.857 394.128 532.538 464.836C529.425 481.382 493.772 682.122 574.629 779.134C552.557 778.71 403.648 780.69 330.148 910.51C318.617 912.773 110.497 956.541 19.8782 1116.98L21.6467 1118.46C113.893 955.127 328.875 913.338 330.997 912.985L331.563 912.844L331.775 912.207C410.085 773.407 575.619 781.68 577.317 781.821L580.146 781.962Z" fill="#131618"/>
<path d="M485.07 469.291L485.495 468.018L484.504 467.523C363.113 403.815 323.71 218.63 323.286 216.791L323.003 215.589L322.013 215.872C184.068 255.752 49.943 135.406 24.4762 110.871L23.2029 112.921C48.7404 137.528 183.007 258.014 321.588 218.63C325.267 235.034 366.579 408.411 483.726 469.927L484.151 468.796L485.07 469.291Z" fill="#131618"/>
<path d="M521.856 752.619L521.927 750.002C520.441 749.932 372.451 744.275 302.984 870.065C292.585 872.115 115.449 908.672 31.1968 1044.86L32.8946 1046.41C118.774 907.682 301.922 872.893 303.762 872.54L304.257 872.469L304.54 871.974C373.159 746.962 520.37 752.548 521.856 752.619Z" fill="#131618"/>
<path d="M467.173 721.224C399.05 640.9 435.269 475.301 435.623 473.674L435.835 472.614L434.986 472.19C327.389 414.492 293.575 251.792 293.292 250.166L293.08 248.964L292.089 249.247C173.669 281.207 62.6057 186.387 31.409 156.548L31.1967 156.407L30.2771 158.74C61.4739 188.508 172.679 283.399 291.594 252.075C294.919 267.206 330.502 418.31 433.5 474.099C430.459 488.665 399.828 645.213 465.9 723.133L467.173 721.224Z" fill="#131618"/>
<path d="M276.597 831.953L276.314 829.408C274.758 829.691 118.067 858.61 39.9685 977.612L41.5955 979.239C119.198 861.014 275.041 832.165 276.597 831.953Z" fill="#131618"/>
<path d="M413.693 694.284L411.854 692.022C355.332 624.212 382.708 493.261 385.962 478.553L386.387 477.351L385.467 476.644C291.594 425.169 263.439 285.025 263.156 283.611L261.105 284.176C261.388 285.591 289.613 426.159 383.699 478.553C379.808 496.372 354.341 623.293 408.529 691.668C391.692 692.304 294.424 699.658 248.654 788.963C239.741 790.66 113.751 815.69 46.8303 913.48L48.4574 915.177C116.935 815.054 248.088 791.72 249.432 791.508L249.928 791.437L250.211 790.942C299.446 694.214 409.944 694.284 411.005 694.355L413.693 694.284Z" fill="#131618"/>
<path d="M358.161 665.011L356.393 662.819C306.52 601.515 335.17 487.745 336.444 482.937L336.727 481.877L335.949 481.311C255.941 436.058 233.374 318.258 233.162 317.056L232.95 315.854L231.959 316.066C143.745 334.521 64.5863 266.641 42.4444 245.428L41.1003 247.479C63.313 268.762 142.614 336.713 231.323 318.823C233.94 331.41 258.275 439.522 334.251 483.22C330.997 496.513 306.874 602.505 353.28 662.607C338.424 663.668 258.204 672.718 221.49 748.518C213.213 750.002 109.365 770.154 52.2774 851.822L53.9045 853.519C112.619 769.589 221.207 751.204 222.339 750.992L222.834 750.922L223.117 750.356C262.732 667.839 354.836 665.082 355.756 665.082L358.161 665.011Z" fill="#131618"/>
<path d="M286.784 487.675L287.208 486.473L286.289 485.907C220.075 446.664 203.168 351.42 203.026 350.501L202.814 349.299L201.824 349.44C127.829 361.602 64.5864 306.167 46.9012 288.914L45.5571 290.964C63.3131 308.288 126.697 363.794 201.116 352.198C203.309 363.37 222.197 450.836 285.369 488.24L285.793 487.109L286.784 487.675Z" fill="#131618"/>
<path d="M300.366 635.879L300.224 633.263C299.446 633.334 224.956 638.778 194.255 707.931C186.685 709.204 103.282 724.547 56.1682 792.003L57.7953 793.7C106.394 724.123 194.184 710.547 195.103 710.476L195.669 710.406L195.952 709.84C225.876 641.394 299.588 635.95 300.366 635.879Z" fill="#131618"/>
<path d="M247.098 606.465L245.683 604.555C212.859 560.999 237.053 492.978 237.265 492.341L237.689 491.21L236.84 490.644C184.492 457.482 173.103 384.653 172.961 383.946L170.91 384.441C171.051 385.148 182.441 458.402 235.001 492.412C232.03 501.463 213.284 562.838 242.854 604.485C232.667 606.535 185.978 618.414 167.302 667.344C154.286 669.395 94.5097 681.627 58.927 734.164L60.554 735.79C95.9245 683.466 155.842 671.728 167.656 669.89L168.363 670.243L168.858 669.112C189.09 614.95 244.481 606.747 244.976 606.677L247.098 606.465Z" fill="#131618"/>
<path d="M191.425 577.05L190.293 575.424C166.383 541.13 187.393 497.503 187.605 497.079L188.171 495.948L187.251 495.311C148.697 468.23 143.038 417.886 142.967 417.391L142.826 416.259H141.906C94.2269 415.835 62.6764 383.804 54.1875 374.047L52.7727 375.956C61.4031 385.855 93.0951 418.027 141.057 418.876C142.119 426.512 149.9 471.412 185.341 496.938C182.158 504.079 166.524 543.322 187.746 575.636C180.389 578.252 149.971 591.121 139.996 627.041C133.7 627.818 87.2236 634.819 60.5542 678.021L62.252 679.577C90.1947 634.324 140.421 629.586 140.916 629.515L141.482 629.374L141.694 628.526C152.376 588.505 189.373 577.616 189.727 577.474L191.425 577.05Z" fill="#131618"/>
<path d="M113.539 588.929V586.313C113.185 586.313 79.2297 586.171 60.9785 624.707L62.8178 625.98C80.4323 588.858 113.185 588.929 113.539 588.929Z" fill="#131618"/>
<path d="M134.903 546.221C119.906 521.403 137.096 502.736 137.803 501.958L138.864 500.897L137.732 499.978C112.973 479.119 112.832 451.26 112.832 451.048V449.917L111.912 449.704C72.6508 441.856 57.0878 415.623 56.9463 415.34L55.2485 416.825C55.8852 417.956 71.236 443.836 110.78 452.108C111.063 457.553 113.681 482.089 135.54 501.18C131.79 505.917 119.198 524.584 133.276 547.847L134.903 546.221Z" fill="#131618"/>
</svg>
